<svg xmlns="http://www.w3.org/2000/svg" xmlns:xlink="http://www.w3.org/1999/xlink" version="1.1" x="0px" y="0px" width="1908px" height="543px" viewBox="0 0 1908 543" enable-background="new 0 0 1908 543" xml:space="preserve"><style>.style0{fill:	#D21318;}.style1{fill:	#4C4D4E;}</style><g><g><path d="M1607.38 11.04c8.16-2.17 16.62-0.6 24.5 1.84c81.03 21.5 162.1 43.1 243.1 64.6 c5.96 1.4 11.9 3.4 16.8 7.21c11.24 8.2 17.2 22.9 14.7 36.64c-1.16 5.42-2.84 10.72-4.2 16.1 c-20.5 75.93-41 151.86-61.5 227.79c-1.95 6.54-3 13.48-6.57 19.41c-8.61 15.33-28.47 22.57-45.03 16.8 c-82.98-22.07-165.96-44.13-248.94-66.18c-6.57-1.54-12.79-4.66-17.7-9.31c-9.55-8.8-14.05-22.77-11.07-35.45 c21.85-81.29 43.86-162.54 65.79-243.81c1.69-5.83 2.72-11.96 5.79-17.28C1588.05 20.2 1597.2 13.5 1607.4 11.04z M1607.44 28.06c-7.11 1.46-10.43 11.09-5.51 16.52c4.67 6.2 15.6 4.3 17.85-3.17C1622.73 34 1615 25.8 1607.4 28.06z M1540.76 283.17c22.19 5.9 44.4 11.8 66.6 17.71c10.46-13.81 20.75-27.76 31.14-41.63c34.92 9.3 69.9 18.5 104.8 27.9 c1.88 17.1 3.9 34.2 5.9 51.35c22.2 5.9 44.4 11.8 66.6 17.73c-13.04-84.2-26.11-168.39-39.13-252.6 c-24.87-6.63-49.76-13.23-74.63-19.85C1648.23 150.3 1594.5 216.7 1540.8 283.17z" class="style0"/></g><path d="M1666.1 222.56c20.03-26.73 40.03-53.49 60.05-80.23c3.82 33.1 7.7 66.2 11.5 99.3 C1713.82 235.2 1690 228.9 1666.1 222.56z" class="style0"/></g><g><g><path d="M0 104.77c1.59-14.75 15.07-27.04 29.99-26.78c506.2 0 1012.4-0.03 1518.6 0 c-19.74 73.04-39.45 146.09-59.21 219.13c-1.41 4.97-2.13 10.17-1.66 15.33c1.18 18.3 15.6 34.3 33.5 37.9 c35.9 9.5 71.8 19.1 107.7 28.61c-533 0.1-1065.99 0.02-1598.99 0.04C14.93 379.2 1.4 366.7 0 351.83V104.77z M583.58 129.31c-13.15 0.87-26.34 2.33-39.09 5.8c-7.03 1.98-14.05 4.59-19.93 9.01c-5.69 4.26-9.25 10.67-11.83 17.2 c-4.21 10.89-6.1 22.51-7.42 34.06c-2.14 21.66-2.56 43.53-0.81 65.24c1.51 15 3.9 30.5 11.8 43.5 c4.96 8.3 13.7 13.4 22.7 16.49c19.92 6.7 41.2 7.5 62 7.92c22.79-0.03 45.85-0.57 68.11-5.89 c11.38-2.9 23.76-7.45 29.97-18.16c8.39-14.36 10.45-31.32 12.08-47.59c1.73-23.93 1.95-48.12-1.52-71.91 c-2.26-13.25-5.42-27.28-14.6-37.6c-9.24-9.46-22.68-12.86-35.24-15.34C634.69 127.7 609 128 583.6 129.31z M1151.55 133.97c-11.17 2.64-22.97 6.3-30.88 15.11c-9.13 10.23-12.7 24.05-14.45 37.32c-2.01 16.3-1.16 32.77-0.729 49.1 c0.85 18.4 2.1 36.9 6.7 54.72c2.38 8.5 5.5 17.6 12.9 23.19c8.13 6.1 18.2 8.9 28 10.9 c15.43 3 31.2 3.9 46.9 4.13c19.43 0.1 38.97-0.24 58.21-3.26c8.59-1.48 17.31-3.33 25.01-7.58 c7.56-4.2 12.39-11.95 15.11-19.95c4.48-13.16 4.78-27.26 4.62-41.02c-14.85 0-29.7 0-44.55 0c0.46 9.1 1 18.72-3.08 27.1 c-2.12 4.53-6.37 7.74-11.14 9.05c-10.72 3.16-22.02 3.38-33.11 3.7c-13.62 0.05-27.45 0.02-40.74-3.29 c-5.59-1.53-12.02-3.94-14.27-9.8c-2.9-7.28-3.64-15.17-4.45-22.89c-1.37-15.66-1.56-31.4-1.43-47.1 c0.25-11.58 0.63-23.28 3.45-34.56c1.3-4.89 3.38-10.32 8.33-12.55c9.02-4.26 19.21-4.81 29.01-5.57 c14.69-0.63 29.5-0.89 44.1 1.14c6.06 1.1 13.2 2.3 16.8 7.9c4.81 7.6 4.5 17 4.5 25.67c14.84 0 29.7 0 44.5 0 c-0.21-11.44-0.45-23.08-3.86-34.1c-2.46-8.15-6.85-16.09-13.97-21.01c-6.82-4.63-14.9-6.9-22.88-8.55 c-14.83-2.88-30.01-3.44-45.08-3.41C1193.8 128.7 1172.4 129.4 1151.5 133.97z M73.2 130.21c0.01 65.54-0.01 131.1 0 196.6 c14.8-0.03 29.59-0.03 44.4 0c0.07-21.19 0-42.38 0.03-63.58c17.46 0 34.9 0 52.4 0c18.71-0.18 37.7 0 55.95-4.71 c8.09-2.19 16.38-5.54 21.87-12.14c6.47-7.81 9.16-17.96 10.66-27.8c1.77-13.1 1.81-26.45 0.26-39.58 c-1.47-10.95-4.32-22.29-11.53-30.96c-6.08-7.32-15.25-11.08-24.23-13.43c-15.65-3.97-31.92-4.49-47.99-4.41 C141.06 130.2 107.1 130.2 73.2 130.21z M288.15 130.22c0 65.5 0 131.1 0 196.59c14.79 0 29.59-0.02 44.4 0 c0.05-22.09-0.01-44.18 0.02-66.28c21.49 0 42.98-0.01 64.5 0.02c9.16 0.1 19 1.5 26.3 7.6 c6.22 5.2 8.8 13.5 8.9 21.32c0.11 12.4 0 24.9 0.1 37.34c14.78-0.03 29.56-0.03 44.34-0.01 c0.04-14.75 0.01-29.5 0.01-44.25c-0.01-9.67-2.65-19.97-9.86-26.83c-7.64-7.37-18.55-9.8-28.82-10.43 c-0.14-0.28-0.41-0.85-0.55-1.14c10.46-2.13 21.52-4.44 29.98-11.4c6.12-5.02 8.57-12.97 9.99-20.46 c1.81-10.14 2.1-20.51 1.68-30.79c-0.67-11.51-3.01-23.56-10.2-32.89c-5.43-7.21-13.92-11.24-22.39-13.68 c-13.13-3.7-26.86-4.57-40.43-4.73C366.72 130.2 327.4 130.2 288.1 130.22z M838.35 254.53c-0.01 9.2 0.2 18.52-1.9 27.5 c-0.96 3.79-2.44 7.86-5.88 10.09c-4.9 3.13-10.86 3.82-16.52 4.26c-8.1 0.43-16.35 0.27-24.26-1.65 c-5.23-1.34-10.62-3.76-13.63-8.44c-3.02-4.68-2.38-10.5-2.78-15.79c0.02-6.89-0.53-13.75-1.03-20.61 c-14.16-0.28-28.32-0.05-42.47-0.12c-0.69 16.7-1.09 33.8 3.8 49.98c2.47 8.1 7.1 16.1 15 20 c11.49 5.7 24.5 7.1 37.2 8.13c19.69 1.1 39.6 1.3 59.11-2.39c10.63-2.18 22.25-5.94 28.39-15.61 c7.6-11.91 8.88-26.53 9.32-40.32c0.12-46.42-0.03-92.85 0.06-139.28c-14.79-0.13-29.59 0-44.38-0.07 C838.31 171.6 838.4 213.1 838.4 254.53z M919.35 326.82c53.74-0.02 107.47-0.01 161.2 0c0-10.45-0.01-20.9 0-31.35 c-38.94-0.08-77.87-0.01-116.81-0.04c0-18.54 0-37.09 0-55.63c36.6 0 73.2 0 109.8 0c-0.07-9.06 0.09-18.12-0.07-27.17 c-0.62-0.09-1.86-0.26-2.48-0.35c-35.76 0.05-71.52 0.01-107.28 0.02c0.04-16.92 0-33.84 0.02-50.76 c38.6-0.03 77.2 0 115.8-0.03c-0.03-10.43 0.03-20.87-0.04-31.3c-53.37 0.01-106.75 0.02-160.12-0.01 C919.31 195.7 919.4 261.3 919.4 326.82z M1312.21 130.22c-0.01 11.12-0.01 22.2 0 33.36c22.54 0 45.09-0.01 67.7 0 c0 54.41-0.02 108.81-0.03 163.21c14.82 0 29.64-0.01 44.5 0.02c-0.05-54.41-0.04-108.82-0.04-163.23 c23.33-0.01 46.6 0 69.98-0.01c0.01-11.12 0.01-22.24 0-33.36C1433.55 130.2 1372.9 130.2 1312.2 130.22z" class="style1"/></g><path d="M584.55 161.28c11.48-0.99 23.03-1.01 34.54-0.75c9.08 0.3 18.2 0.9 27.1 2.8 c4 0.9 8.1 2.1 11.5 4.45c3.44 2.5 4.7 6.8 5.8 10.63c2.11 8.5 2.8 17.4 3.3 26.1c0.69 14.3 0.7 28.7 0.1 43 c-0.48 9.74-1.14 19.54-3.41 29.06c-1.23 4.6-2.73 9.73-6.91 12.53c-4.89 3.26-10.78 4.5-16.47 5.5 c-12.91 2.05-26.04 2.11-39.08 1.9c-11.26-0.35-22.67-0.81-33.62-3.67c-5.12-1.36-10.65-3.75-12.85-8.96 c-4.31-9.5-4.87-20.16-5.61-30.42c-0.76-18.26-0.46-36.57 0.81-54.81c0.84-8.68 1.45-17.61 4.7-25.8 c1.68-4.51 6.32-6.77 10.63-8.14C571.38 162.7 578 161.9 584.5 161.28z" class="style1"/><path d="M117.61 161.54c17.45 0 34.9 0 52.37-0.01c10.03 0.1 20.2 0.1 30 2.42c4.16 1 8.6 2.9 10.5 7 c3.68 7.6 3.9 16.2 4.2 24.51c0.01 8.9 0 18.39-4.39 26.4c-2.29 4.3-7.03 6.34-11.55 7.41c-9.09 2.16-18.48 2.46-27.78 2.6 c-17.8 0.04-35.6 0.01-53.41 0.02C117.6 208.4 117.6 185 117.6 161.54z" class="style1"/><path d="M332.56 161.54c22.82 0 45.64-0.03 68.5 0.02c7.78 0.2 15.9 0.5 23.1 3.7 c3.93 1.7 6.4 5.5 7.6 9.47c2.37 7.7 2.5 15.8 2.3 23.74c-0.32 6.97-1.04 14.28-4.62 20.43c-2.22 3.89-6.28 6.27-10.45 7.6 c-7.76 2.42-15.98 2.66-24.04 2.69c-20.8-0.03-41.61 0.06-62.41-0.04C332.59 206.6 332.5 184.1 332.6 161.54z" class="style1"/><path d="M1842.16 436.01c12.52-1.71 25.3-1.72 37.85-0.16c6.4 1 13.6 2.5 17.8 7.9 c4.86 6.5 4.9 15.1 4.8 22.91c-6.63-0.06-13.24-0.02-19.85-0.03c-0.66-4.91-0.34-11.92-5.77-14.18 c-7.46-2.1-15.38-1.55-23.03-1.13c-4.73 0.47-10.97 1.01-12.89 6.19c-1.79 5.28-1.62 11.3 0.2 16.6 c1.07 3.1 4.7 3.5 7.5 4.06c14.8 2.4 30.3 0.8 44.6 5.89c4.44 1.4 8 5 9.5 9.4c2.95 8.7 2.5 18.1 1.5 27 c-0.98 6.48-3.08 13.89-9.29 17.22c-9.25 4.8-19.99 3.8-29.93 5.83h-8.52c-10.11-2.19-21.68-0.88-30.33-7.52 c-7.6-6.99-7.4-18.3-7.52-27.82c6.57-0.02 13.2 0 19.74-0.02c0.28 4.98-0.24 10.6 2.8 14.86c2.97 2.9 7.6 2.7 11.4 3.2 c8.56 0.3 17.4 1.1 25.75-1.2c5.78-1.54 6.31-8.56 6.49-13.5c-0.09-4.19 0.05-9.73-4.08-12.12c-5.32-2.49-11.38-2.09-17.08-2.62 c-11.66-0.87-23.77-1-34.72-5.54c-6.92-2.94-8.95-11.07-9.64-17.84c-0.69-9.22-0.87-19.19 3.73-27.52 C1827.1 439.2 1835.1 437.1 1842.2 436.01z" class="style1"/><path d="M2.03 435.68c7.06 0.2 14.32-0.46 21.2 0.32c9.73 29.5 20.4 58.8 28.5 88.9 c1.92-4.26 2.63-8.94 4.07-13.36c7.52-25.48 16.41-50.53 24.53-75.83c7.19-0.01 14.38-0.06 21.6 0 c-11.55 35.35-22.96 70.75-34.54 106.09c-10.39-0.06-20.78 0.03-31.18-0.05C24.86 506.4 13.4 471.1 2 435.68z" class="style1"/><path d="M269.36 435.66c24.4 0 48.8 0 73.2 0.02c-0.04 5.7 0.1 11.38-0.09 17.1 c-17.6-0.09-35.2-0.02-52.8-0.03c-0.01 9.1-0.01 18.19-0.01 27.29c16.71-0.01 33.4 0 50.14-0.01c0 5 0 9.95-0.01 14.9 c-16.72-0.01-33.44-0.05-50.16 0.02c0.04 10 0 19.9 0 29.88c17.78 0 35.6 0 53.3 0c0 5.7 0 11.32-0.01 17 c-24.53-0.01-49.06-0.02-73.59 0C269.36 506.4 269.3 471 269.4 435.66z" class="style1"/><path d="M518.86 435.68c11.52 0.1 23.05-0.16 34.6 0.11c10.15 20.2 20.8 40.1 30.9 60.3 c4.79 9.5 9 19.2 13.8 28.66c0.34-5.76-0.32-11.5-0.29-17.25c-0.25-23.94-0.08-47.87-0.12-71.81c6.79-0.01 13.57-0.01 20.4 0 c-0.01 35.37-0.01 70.74-0.01 106.11c-11.47 0.01-22.94-0.01-34.41 0.01c-9.52-18.11-19.01-36.24-28.53-54.35 c-5.02-9.3-9.06-19.08-13.46-28.67c-0.99-1.86-1.31-4.29-3.13-5.54c1.12 29.5 0.5 59 0.6 88.54c-6.78 0.02-13.56 0.02-20.33 0 C518.85 506.4 518.8 471.1 518.9 435.68z" class="style1"/><path d="M789.08 435.69c27.72-0.03 55.44-0.01 83.16-0.01c0.03 6 0 12.1 0 18.1 c-10.65 0.01-21.29 0-31.94 0.01c-0.01 29.32-0.01 58.65-0.02 87.97c-6.78 0.02-13.56 0.02-20.33 0c-0.02-29.32 0-58.65-0.01-87.97 c-10.29-0.01-20.58 0.01-30.87-0.01C789.08 447.8 789.1 441.7 789.1 435.69z" class="style1"/><path d="M1043.29 435.68c6.79-0.01 13.58-0.01 20.4 0c0 22.6 0 45.25-0.02 67.87c0.04 5.42-0.31 11.2 2.1 16.2 c1.29 2.8 4.4 4 7.2 4.55c8.26 1.6 16.8 1.3 25.1 0.72c3.89-0.57 8.65-0.8 11.18-4.27c2.899-4.85 2.61-10.78 2.68-16.23 c-0.02-22.94-0.02-45.88 0-68.82c6.78-0.01 13.56-0.01 20.3 0c-0.03 24.9 0.1 49.88-0.08 74.8 c-0.54 8.88-1.57 19.21-8.84 25.34c-8.96 6.54-20.63 5.54-30.98 7.67h-7.75c-10.17-1.99-21.14-1.14-30.52-6.16 c-6.53-3.53-8.97-11.24-10.01-18.1c-1.43-10.84-0.59-21.8-0.82-32.69C1043.3 469.6 1043.3 452.6 1043.3 435.68z" class="style1"/><g><path d="M1311.75 435.68c17.09-0.01 34.2 0 51.27-0.01c9.01 0.1 18.7 0.3 26.6 5.2 c7.03 4.7 8.8 13.7 9.3 21.59c0.18 8.4 0.4 17.13-2.8 25.02c-2.91 6.33-10.22 8.27-16.38 9.9 c3.64 1.1 7.7 1.2 10.8 3.56c5.39 3.6 7.2 10.4 7.3 16.51c0.06 8.11-0.01 16.2 0 24.3 c-6.78 0.01-13.55-0.01-20.31 0.01c-0.04-6.78 0.03-13.56-0.03-20.33c-0.05-4.77-1.62-10.03-5.8-12.76 c-4.28-2.92-9.7-2.67-14.63-2.62c-8.33 0.01-16.65-0.01-24.96 0.01c-0.01 11.9 0 23.79-0.01 35.69c-6.78 0-13.56 0-20.33 0 C1311.75 506.4 1311.7 471.1 1311.8 435.68z M1332.11 452.7c-0.01 12.14-0.01 24.27-0.01 36.4c7.66 0 15.3 0 23 0 c5.86-0.13 12.1 0.6 17.58-2c4.62-2.28 5.21-8.11 5.6-12.66c0.08-5.94 0.58-12.41-2.35-17.8c-3.28-4.06-9.18-3.76-13.91-3.94 C1352.03 452.7 1342.1 452.7 1332.1 452.7z" class="style1"/></g><path d="M1573.75 435.68c24.41 0 48.81-0.02 73.2 0.01c0.01 5.7 0 11.3 0 17.01c-17.63 0.01-35.24 0-52.86 0 c-0.01 9.1-0.02 18.2 0 27.3c16.7 0 33.39-0.02 50.1 0.01c-0.01 4.96-0.01 9.9 0 14.88c-16.71 0.02-33.41 0-50.1 0 c0 9.97-0.01 19.9 0 29.91c17.73-0.04 35.5 0.1 53.19-0.08c0.21 5.7 0.1 11.4 0.1 17.06c-24.54 0-49.08 0-73.61 0 C1573.75 506.4 1573.7 471.1 1573.8 435.68z" class="style1"/></g></svg>